<svg width="240" height="238" viewBox="0 0 240 238" fill="none" xmlns="http://www.w3.org/2000/svg">
<path d="M86.3398 -49.8877L46.6631 -10.2881H-9.1748V45.4404L-48.4453 84.6367L-48.7988 84.9883L-48.4473 85.3428L-9.1748 124.96V180.673H46.6621L86.3398 220.273L86.6953 220.628L87.0479 220.271L126.339 180.673H182.155V124.964L221.83 85.751L222.188 85.3965L221.832 85.041L182.155 45.4404V-10.2881H126.338L87.0479 -49.8857L86.6953 -50.2422L86.3398 -49.8877ZM86.6934 -9.28809C112.699 -9.28803 134.752 -0.383932 152.881 17.4287L153.741 18.2832C172.019 36.6666 181.155 59.0277 181.155 85.3955C181.155 111.096 172.236 133.034 154.387 151.237L153.53 152.101V152.102C135.123 170.486 112.853 179.673 86.6934 179.673C60.6861 179.673 38.5694 170.837 20.3154 153.16L19.4492 152.312C1.03121 134.057 -8.17472 111.762 -8.1748 85.3955C-8.1748 59.0288 1.03175 36.6679 19.4512 18.2842C37.8706 -0.0993209 60.2748 -9.28809 86.6934 -9.28809ZM86.6934 2.56934C64.1174 2.56934 44.7963 10.4025 28.7568 26.0586L27.9951 26.8096C11.8068 42.9665 3.70703 62.5048 3.70703 85.3955C3.70711 108.286 11.8075 127.754 27.9971 143.771V143.77C44.1856 159.797 63.7604 167.816 86.6934 167.816C109.268 167.816 128.521 160.046 144.424 144.514L145.179 143.769C161.239 127.752 169.273 108.285 169.273 85.3955C169.273 62.8638 161.488 43.58 145.927 27.5713L145.18 26.8115C129.133 10.6534 109.628 2.56939 86.6934 2.56934ZM86.6934 53.3584C95.1424 53.3585 102.397 56.3207 108.482 62.2617L109.067 62.8457C115.286 69.1793 118.388 76.6882 118.388 85.3955C118.388 93.8303 115.478 101.072 109.646 107.145L109.071 107.729C102.869 113.932 95.4181 117.027 86.6934 117.027C78.2409 117.027 70.9162 114.123 64.6973 108.298L64.0986 107.725L63.5127 107.141C57.5605 101.067 54.5929 93.827 54.5928 85.3955C54.5928 76.9636 57.5611 69.6547 63.5166 63.4473L64.1025 62.8496C70.4493 56.5152 77.9715 53.3584 86.6934 53.3584ZM-21.0371 130.158L-21.1836 130.011L-66.2891 84.9932L-21.1875 40.7822L-21.0371 40.6348V-22.125H41.4375L41.583 -22.2715L86.6895 -67.291L130.988 -22.2744L131.136 -22.125H194.018V41.0391L194.166 41.1855L239.287 85.7979L194.168 130.008L194.018 130.155V192.511H131.137L130.99 192.658L86.6904 237.291L41.9893 192.657L41.8428 192.511H-21.0371V130.158Z" fill="url(#paint0_linear_1_15050)" stroke="url(#paint1_linear_1_15050)"/>
<defs>
<linearGradient id="paint0_linear_1_15050" x1="86.5" y1="-112.25" x2="86.5" y2="259" gradientUnits="userSpaceOnUse">
<stop stop-color="#1F1C2B"/>
<stop offset="1" stop-color="#282438"/>
</linearGradient>
<linearGradient id="paint1_linear_1_15050" x1="86.5" y1="-68" x2="86.5" y2="303" gradientUnits="userSpaceOnUse">
<stop stop-color="white" stop-opacity="0.25"/>
<stop offset="1" stop-color="white" stop-opacity="0"/>
</linearGradient>
</defs>
</svg>
