<svg width="196" height="243" viewBox="0 0 196 243" fill="none" xmlns="http://www.w3.org/2000/svg">
<path d="M-43.8473 96.0664C-46.4872 96.0664 -48.7517 96.9112 -50.612 98.6016L-50.9782 98.9512C-52.9142 100.884 -53.8825 103.273 -53.8825 106.085V154.64H-112.561V233.25H-4.4733V193.944C-4.47319 184.852 -1.36528 177.07 4.86069 170.571L5.47299 169.947C12.0975 163.335 20.0969 160.033 29.5003 160.033C38.6101 160.033 46.4073 163.131 52.9173 169.337L53.5433 169.947C60.1673 176.569 63.4739 184.559 63.474 193.944V233.25H171.562V154.64H112.883V106.085C112.883 103.449 112.037 101.185 110.344 99.3193L109.994 98.9521L109.993 98.9502L109.624 98.6006C107.756 96.9111 105.488 96.0664 102.848 96.0664H-43.8473ZM29.224 -16.9697L-22.111 17.0703C-27.5633 20.5338 -31.7807 25.1143 -34.7555 30.8057C-37.7269 36.4905 -39.2135 42.5497 -39.2135 48.9756C-39.2135 59.3603 -35.4917 68.2732 -28.0641 75.6875C-20.6367 83.1016 -11.7086 86.8163 -1.3063 86.8164H60.307C70.3843 86.8163 79.0784 83.3306 86.3646 76.3721L87.0648 75.6875C94.4924 68.2732 98.2142 59.3603 98.2142 48.9756C98.2142 42.7505 96.8192 36.8697 94.0306 31.3398L93.7562 30.8057C90.8743 25.2921 86.8266 20.8213 81.6195 17.3984L81.1117 17.0703L29.7767 -16.9697L29.5003 -17.1533L29.224 -16.9697ZM171.562 66.9551L171.265 66.8232C166.931 64.9003 163.453 62.263 160.82 58.917C158.2 55.5894 156.892 51.7937 156.892 47.5117C156.892 43.9747 158.244 39.9194 161.01 35.334L161.582 34.4102C164.676 29.5453 169.541 24.013 176.197 17.8105C182.429 23.6188 187.092 28.8394 190.2 33.4746L190.811 34.4102C193.963 39.3766 195.5 43.739 195.5 47.5117C195.5 51.7937 194.193 55.5894 191.574 58.917C188.94 62.2631 185.463 64.9002 181.128 66.8232L180.83 66.9551V242.5H54.2054V193.944C54.2053 187.429 51.9184 181.78 47.3626 177.02L46.9144 176.562V176.561L46.4554 176.113C41.6859 171.565 36.0265 169.283 29.5003 169.283C22.9743 169.283 17.3194 171.565 12.5589 176.113L12.1009 176.561C7.23701 181.416 4.79537 187.219 4.79526 193.944V242.5H-121.83V66.9551L-122.128 66.8232C-126.462 64.9002 -129.939 62.2631 -132.573 58.917C-135.192 55.5894 -136.5 51.7937 -136.5 47.5117C-136.5 43.9748 -135.149 39.9193 -132.382 35.334L-131.81 34.4102C-128.717 29.5453 -123.851 24.013 -117.196 17.8105C-110.964 23.6188 -106.301 28.8394 -103.193 33.4746L-102.582 34.4102C-99.4296 39.3767 -97.8913 43.7389 -97.8913 47.5117C-97.8913 51.7937 -99.1998 55.5894 -101.819 58.917C-104.453 62.263 -107.93 64.9003 -112.264 66.8232L-112.561 66.9551V145.39H-63.152V106.085C-63.152 100.769 -61.4163 96.3128 -57.9479 92.6855L-57.6071 92.3369C-53.9213 88.6577 -49.3458 86.8164 -43.8473 86.8164H-29.2624L-30.3249 85.9316C-35.9635 81.2412 -40.343 75.931 -43.4704 70.001L-43.7692 69.4248C-46.9087 63.2825 -48.4821 56.4689 -48.4821 48.9756C-48.4821 41.256 -46.667 34.0489 -43.0358 27.3467L-42.6784 26.6992C-38.926 20.0321 -33.9265 14.5562 -27.6764 10.2666L-27.067 9.85547L-27.0641 9.85254L29.5003 -28.3965L86.0648 9.85254L86.0677 9.85547C92.3986 14.0685 97.479 19.4673 101.312 26.0576L101.679 26.6992C105.548 33.5841 107.483 41.0068 107.483 48.9756C107.483 56.2347 106.006 62.8557 103.06 68.8467L102.77 69.4248C99.625 75.5874 95.1461 81.0898 89.3255 85.9316L88.263 86.8164H102.848C108.175 86.8164 112.635 88.545 116.259 91.998L116.608 92.3369C120.303 96.026 122.153 100.598 122.153 106.085V145.39H171.562V66.9551Z" fill="#1C1B1F"/>
<path d="M-43.8473 96.0664C-46.4872 96.0664 -48.7517 96.9112 -50.612 98.6016L-50.9782 98.9512C-52.9142 100.884 -53.8825 103.273 -53.8825 106.085V154.64H-112.561V233.25H-4.4733V193.944C-4.47319 184.852 -1.36528 177.07 4.86069 170.571L5.47299 169.947C12.0975 163.335 20.0969 160.033 29.5003 160.033C38.6101 160.033 46.4073 163.131 52.9173 169.337L53.5433 169.947C60.1673 176.569 63.4739 184.559 63.474 193.944V233.25H171.562V154.64H112.883V106.085C112.883 103.449 112.037 101.185 110.344 99.3193L109.994 98.9521L109.993 98.9502L109.624 98.6006C107.756 96.9111 105.488 96.0664 102.848 96.0664H-43.8473ZM29.224 -16.9697L-22.111 17.0703C-27.5633 20.5338 -31.7807 25.1143 -34.7555 30.8057C-37.7269 36.4905 -39.2135 42.5497 -39.2135 48.9756C-39.2135 59.3603 -35.4917 68.2732 -28.0641 75.6875C-20.6367 83.1016 -11.7086 86.8163 -1.3063 86.8164H60.307C70.3843 86.8163 79.0784 83.3306 86.3646 76.3721L87.0648 75.6875C94.4924 68.2732 98.2142 59.3603 98.2142 48.9756C98.2142 42.7505 96.8192 36.8697 94.0306 31.3398L93.7562 30.8057C90.8743 25.2921 86.8266 20.8213 81.6195 17.3984L81.1117 17.0703L29.7767 -16.9697L29.5003 -17.1533L29.224 -16.9697ZM171.562 66.9551L171.265 66.8232C166.931 64.9003 163.453 62.263 160.82 58.917C158.2 55.5894 156.892 51.7937 156.892 47.5117C156.892 43.9747 158.244 39.9194 161.01 35.334L161.582 34.4102C164.676 29.5453 169.541 24.013 176.197 17.8105C182.429 23.6188 187.092 28.8394 190.2 33.4746L190.811 34.4102C193.963 39.3766 195.5 43.739 195.5 47.5117C195.5 51.7937 194.193 55.5894 191.574 58.917C188.94 62.2631 185.463 64.9002 181.128 66.8232L180.83 66.9551V242.5H54.2054V193.944C54.2053 187.429 51.9184 181.78 47.3626 177.02L46.9144 176.562V176.561L46.4554 176.113C41.6859 171.565 36.0265 169.283 29.5003 169.283C22.9743 169.283 17.3194 171.565 12.5589 176.113L12.1009 176.561C7.23701 181.416 4.79537 187.219 4.79526 193.944V242.5H-121.83V66.9551L-122.128 66.8232C-126.462 64.9002 -129.939 62.2631 -132.573 58.917C-135.192 55.5894 -136.5 51.7937 -136.5 47.5117C-136.5 43.9748 -135.149 39.9193 -132.382 35.334L-131.81 34.4102C-128.717 29.5453 -123.851 24.013 -117.196 17.8105C-110.964 23.6188 -106.301 28.8394 -103.193 33.4746L-102.582 34.4102C-99.4296 39.3767 -97.8913 43.7389 -97.8913 47.5117C-97.8913 51.7937 -99.1998 55.5894 -101.819 58.917C-104.453 62.263 -107.93 64.9003 -112.264 66.8232L-112.561 66.9551V145.39H-63.152V106.085C-63.152 100.769 -61.4163 96.3128 -57.9479 92.6855L-57.6071 92.3369C-53.9213 88.6577 -49.3458 86.8164 -43.8473 86.8164H-29.2624L-30.3249 85.9316C-35.9635 81.2412 -40.343 75.931 -43.4704 70.001L-43.7692 69.4248C-46.9087 63.2825 -48.4821 56.4689 -48.4821 48.9756C-48.4821 41.256 -46.667 34.0489 -43.0358 27.3467L-42.6784 26.6992C-38.926 20.0321 -33.9265 14.5562 -27.6764 10.2666L-27.067 9.85547L-27.0641 9.85254L29.5003 -28.3965L86.0648 9.85254L86.0677 9.85547C92.3986 14.0685 97.479 19.4673 101.312 26.0576L101.679 26.6992C105.548 33.5841 107.483 41.0068 107.483 48.9756C107.483 56.2347 106.006 62.8557 103.06 68.8467L102.77 69.4248C99.625 75.5874 95.1461 81.0898 89.3255 85.9316L88.263 86.8164H102.848C108.175 86.8164 112.635 88.545 116.259 91.998L116.608 92.3369C120.303 96.026 122.153 100.598 122.153 106.085V145.39H171.562V66.9551Z" fill="url(#paint0_linear_1_15061)"/>
<path d="M-43.8473 96.0664C-46.4872 96.0664 -48.7517 96.9112 -50.612 98.6016L-50.9782 98.9512C-52.9142 100.884 -53.8825 103.273 -53.8825 106.085V154.64H-112.561V233.25H-4.4733V193.944C-4.47319 184.852 -1.36528 177.07 4.86069 170.571L5.47299 169.947C12.0975 163.335 20.0969 160.033 29.5003 160.033C38.6101 160.033 46.4073 163.131 52.9173 169.337L53.5433 169.947C60.1673 176.569 63.4739 184.559 63.474 193.944V233.25H171.562V154.64H112.883V106.085C112.883 103.449 112.037 101.185 110.344 99.3193L109.994 98.9521L109.993 98.9502L109.624 98.6006C107.756 96.9111 105.488 96.0664 102.848 96.0664H-43.8473ZM29.224 -16.9697L-22.111 17.0703C-27.5633 20.5338 -31.7807 25.1143 -34.7555 30.8057C-37.7269 36.4905 -39.2135 42.5497 -39.2135 48.9756C-39.2135 59.3603 -35.4917 68.2732 -28.0641 75.6875C-20.6367 83.1016 -11.7086 86.8163 -1.3063 86.8164H60.307C70.3843 86.8163 79.0784 83.3306 86.3646 76.3721L87.0648 75.6875C94.4924 68.2732 98.2142 59.3603 98.2142 48.9756C98.2142 42.7505 96.8192 36.8697 94.0306 31.3398L93.7562 30.8057C90.8743 25.2921 86.8266 20.8213 81.6195 17.3984L81.1117 17.0703L29.7767 -16.9697L29.5003 -17.1533L29.224 -16.9697ZM171.562 66.9551L171.265 66.8232C166.931 64.9003 163.453 62.263 160.82 58.917C158.2 55.5894 156.892 51.7937 156.892 47.5117C156.892 43.9747 158.244 39.9194 161.01 35.334L161.582 34.4102C164.676 29.5453 169.541 24.013 176.197 17.8105C182.429 23.6188 187.092 28.8394 190.2 33.4746L190.811 34.4102C193.963 39.3766 195.5 43.739 195.5 47.5117C195.5 51.7937 194.193 55.5894 191.574 58.917C188.94 62.2631 185.463 64.9002 181.128 66.8232L180.83 66.9551V242.5H54.2054V193.944C54.2053 187.429 51.9184 181.78 47.3626 177.02L46.9144 176.562V176.561L46.4554 176.113C41.6859 171.565 36.0265 169.283 29.5003 169.283C22.9743 169.283 17.3194 171.565 12.5589 176.113L12.1009 176.561C7.23701 181.416 4.79537 187.219 4.79526 193.944V242.5H-121.83V66.9551L-122.128 66.8232C-126.462 64.9002 -129.939 62.2631 -132.573 58.917C-135.192 55.5894 -136.5 51.7937 -136.5 47.5117C-136.5 43.9748 -135.149 39.9193 -132.382 35.334L-131.81 34.4102C-128.717 29.5453 -123.851 24.013 -117.196 17.8105C-110.964 23.6188 -106.301 28.8394 -103.193 33.4746L-102.582 34.4102C-99.4296 39.3767 -97.8913 43.7389 -97.8913 47.5117C-97.8913 51.7937 -99.1998 55.5894 -101.819 58.917C-104.453 62.263 -107.93 64.9003 -112.264 66.8232L-112.561 66.9551V145.39H-63.152V106.085C-63.152 100.769 -61.4163 96.3128 -57.9479 92.6855L-57.6071 92.3369C-53.9213 88.6577 -49.3458 86.8164 -43.8473 86.8164H-29.2624L-30.3249 85.9316C-35.9635 81.2412 -40.343 75.931 -43.4704 70.001L-43.7692 69.4248C-46.9087 63.2825 -48.4821 56.4689 -48.4821 48.9756C-48.4821 41.256 -46.667 34.0489 -43.0358 27.3467L-42.6784 26.6992C-38.926 20.0321 -33.9265 14.5562 -27.6764 10.2666L-27.067 9.85547L-27.0641 9.85254L29.5003 -28.3965L86.0648 9.85254L86.0677 9.85547C92.3986 14.0685 97.479 19.4673 101.312 26.0576L101.679 26.6992C105.548 33.5841 107.483 41.0068 107.483 48.9756C107.483 56.2347 106.006 62.8557 103.06 68.8467L102.77 69.4248C99.625 75.5874 95.1461 81.0898 89.3255 85.9316L88.263 86.8164H102.848C108.175 86.8164 112.635 88.545 116.259 91.998L116.608 92.3369C120.303 96.026 122.153 100.598 122.153 106.085V145.39H171.562V66.9551Z" stroke="url(#paint1_linear_1_15061)"/>
<defs>
<linearGradient id="paint0_linear_1_15061" x1="29.5003" y1="-68.3337" x2="29.5003" y2="261.667" gradientUnits="userSpaceOnUse">
<stop stop-color="#1F1C2B"/>
<stop offset="1" stop-color="#282438"/>
</linearGradient>
<linearGradient id="paint1_linear_1_15061" x1="29.5003" y1="-29" x2="29.5003" y2="300.778" gradientUnits="userSpaceOnUse">
<stop stop-color="white" stop-opacity="0.25"/>
<stop offset="1" stop-color="white" stop-opacity="0"/>
</linearGradient>
</defs>
</svg>
