<svg width="190" height="228" viewBox="0 0 190 228" fill="none" xmlns="http://www.w3.org/2000/svg">
<path d="M20.489 209.382C22.9365 209.382 24.9781 210.141 26.6432 211.654L26.9704 211.967C28.693 213.688 29.5582 215.833 29.5583 218.44C29.5583 220.885 28.7982 222.924 27.2839 224.587L26.9704 224.915C25.2477 226.636 23.0994 227.5 20.489 227.5C18.0417 227.5 16.0007 226.74 14.3356 225.228L14.0075 224.915C12.2848 223.194 11.4196 221.048 11.4196 218.44C11.4197 215.996 12.1796 213.957 13.694 212.294L14.0075 211.967C15.7302 210.246 17.8785 209.382 20.489 209.382ZM102.51 209.382C105.121 209.382 107.269 210.246 108.992 211.967C110.715 213.688 111.58 215.833 111.58 218.44C111.58 221.048 110.715 223.194 108.992 224.915C107.269 226.636 105.121 227.5 102.51 227.5C99.9 227.5 97.7517 226.636 96.029 224.915C94.3063 223.194 93.4411 221.048 93.4411 218.44C93.4412 215.833 94.3064 213.688 96.029 211.967C97.7517 210.246 99.9 209.382 102.51 209.382ZM-20.5218 154.758C-18.0743 154.758 -16.0326 155.517 -14.3675 157.03L-14.0394 157.343C-12.3167 159.064 -11.4525 161.21 -11.4525 163.817C-11.4525 166.262 -12.2124 168.301 -13.7269 169.964L-14.0394 170.291C-15.7621 172.012 -17.9113 172.876 -20.5218 172.876C-22.9689 172.876 -25.0101 172.117 -26.6751 170.604L-27.0032 170.291C-28.7258 168.57 -29.5911 166.425 -29.5911 163.817C-29.5911 161.373 -28.831 159.334 -27.3167 157.671L-27.0032 157.343C-25.2805 155.622 -23.1321 154.758 -20.5218 154.758ZM61.4997 154.758C63.9469 154.758 65.988 155.517 67.653 157.03L67.9811 157.343C69.7039 159.064 70.569 161.21 70.569 163.817C70.569 166.262 69.809 168.301 68.2946 169.964L67.9811 170.291C66.2584 172.012 64.1102 172.876 61.4997 172.876C59.0525 172.876 57.0114 172.117 55.3464 170.604L55.0182 170.291C53.2956 168.57 52.4304 166.425 52.4304 163.817C52.4304 161.373 53.1905 159.334 54.7048 157.671L55.0182 157.343C56.741 155.622 58.8893 154.758 61.4997 154.758ZM143.521 154.758C145.968 154.758 148.009 155.517 149.674 157.03L150.003 157.343C151.725 159.064 152.591 161.21 152.591 163.817C152.59 166.262 151.83 168.301 150.316 169.964L150.003 170.291C148.28 172.012 146.132 172.876 143.521 172.876C141.074 172.876 139.032 172.117 137.367 170.604L137.039 170.291C135.316 168.57 134.452 166.424 134.452 163.817C134.452 161.373 135.212 159.334 136.726 157.671L137.039 157.343C138.762 155.622 140.911 154.758 143.521 154.758ZM61.4997 52.3389C75.0587 52.3389 86.5878 56.8838 96.1149 65.9785L97.0309 66.8721C106.732 76.563 111.58 88.3841 111.58 102.365V115.521H103.01V102.365C103.01 90.8542 98.9711 81.0538 90.902 72.9932C82.8329 64.9325 73.0224 60.8975 61.4997 60.8975C49.977 60.8975 40.1665 64.9325 32.0974 72.9932C24.0283 81.0538 19.989 90.8542 19.989 102.365V115.521H11.4196V102.365C11.4197 88.8209 15.9697 77.3042 25.0739 67.7871L25.9684 66.8721C35.6696 57.1811 47.5034 52.3389 61.4997 52.3389ZM189.5 98.0859V106.646H153.591V98.0859H189.5ZM-30.5911 98.0859V106.646H-66.5003V98.0859H-30.5911ZM155.128 14.6191L129.847 40.2041L123.722 34.0859L149.321 8.51367L155.128 14.6191ZM-1.05499 34.0928L-6.86066 40.1982L-32.4593 14.626L-26.3333 8.50684L-1.05499 34.0928ZM65.7839 -25.5V10.3711H57.2155V-25.5H65.7839Z" fill="#1C1B1F"/>
<path d="M20.489 209.382C22.9365 209.382 24.9781 210.141 26.6432 211.654L26.9704 211.967C28.693 213.688 29.5582 215.833 29.5583 218.44C29.5583 220.885 28.7982 222.924 27.2839 224.587L26.9704 224.915C25.2477 226.636 23.0994 227.5 20.489 227.5C18.0417 227.5 16.0007 226.74 14.3356 225.228L14.0075 224.915C12.2848 223.194 11.4196 221.048 11.4196 218.44C11.4197 215.996 12.1796 213.957 13.694 212.294L14.0075 211.967C15.7302 210.246 17.8785 209.382 20.489 209.382ZM102.51 209.382C105.121 209.382 107.269 210.246 108.992 211.967C110.715 213.688 111.58 215.833 111.58 218.44C111.58 221.048 110.715 223.194 108.992 224.915C107.269 226.636 105.121 227.5 102.51 227.5C99.9 227.5 97.7517 226.636 96.029 224.915C94.3063 223.194 93.4411 221.048 93.4411 218.44C93.4412 215.833 94.3064 213.688 96.029 211.967C97.7517 210.246 99.9 209.382 102.51 209.382ZM-20.5218 154.758C-18.0743 154.758 -16.0326 155.517 -14.3675 157.03L-14.0394 157.343C-12.3167 159.064 -11.4525 161.21 -11.4525 163.817C-11.4525 166.262 -12.2124 168.301 -13.7269 169.964L-14.0394 170.291C-15.7621 172.012 -17.9113 172.876 -20.5218 172.876C-22.9689 172.876 -25.0101 172.117 -26.6751 170.604L-27.0032 170.291C-28.7258 168.57 -29.5911 166.425 -29.5911 163.817C-29.5911 161.373 -28.831 159.334 -27.3167 157.671L-27.0032 157.343C-25.2805 155.622 -23.1321 154.758 -20.5218 154.758ZM61.4997 154.758C63.9469 154.758 65.988 155.517 67.653 157.03L67.9811 157.343C69.7039 159.064 70.569 161.21 70.569 163.817C70.569 166.262 69.809 168.301 68.2946 169.964L67.9811 170.291C66.2584 172.012 64.1102 172.876 61.4997 172.876C59.0525 172.876 57.0114 172.117 55.3464 170.604L55.0182 170.291C53.2956 168.57 52.4304 166.425 52.4304 163.817C52.4304 161.373 53.1905 159.334 54.7048 157.671L55.0182 157.343C56.741 155.622 58.8893 154.758 61.4997 154.758ZM143.521 154.758C145.968 154.758 148.009 155.517 149.674 157.03L150.003 157.343C151.725 159.064 152.591 161.21 152.591 163.817C152.59 166.262 151.83 168.301 150.316 169.964L150.003 170.291C148.28 172.012 146.132 172.876 143.521 172.876C141.074 172.876 139.032 172.117 137.367 170.604L137.039 170.291C135.316 168.57 134.452 166.424 134.452 163.817C134.452 161.373 135.212 159.334 136.726 157.671L137.039 157.343C138.762 155.622 140.911 154.758 143.521 154.758ZM61.4997 52.3389C75.0587 52.3389 86.5878 56.8838 96.1149 65.9785L97.0309 66.8721C106.732 76.563 111.58 88.3841 111.58 102.365V115.521H103.01V102.365C103.01 90.8542 98.9711 81.0538 90.902 72.9932C82.8329 64.9325 73.0224 60.8975 61.4997 60.8975C49.977 60.8975 40.1665 64.9325 32.0974 72.9932C24.0283 81.0538 19.989 90.8542 19.989 102.365V115.521H11.4196V102.365C11.4197 88.8209 15.9697 77.3042 25.0739 67.7871L25.9684 66.8721C35.6696 57.1811 47.5034 52.3389 61.4997 52.3389ZM189.5 98.0859V106.646H153.591V98.0859H189.5ZM-30.5911 98.0859V106.646H-66.5003V98.0859H-30.5911ZM155.128 14.6191L129.847 40.2041L123.722 34.0859L149.321 8.51367L155.128 14.6191ZM-1.05499 34.0928L-6.86066 40.1982L-32.4593 14.626L-26.3333 8.50684L-1.05499 34.0928ZM65.7839 -25.5V10.3711H57.2155V-25.5H65.7839Z" fill="url(#paint0_linear_1_15070)"/>
<path d="M20.489 209.382C22.9365 209.382 24.9781 210.141 26.6432 211.654L26.9704 211.967C28.693 213.688 29.5582 215.833 29.5583 218.44C29.5583 220.885 28.7982 222.924 27.2839 224.587L26.9704 224.915C25.2477 226.636 23.0994 227.5 20.489 227.5C18.0417 227.5 16.0007 226.74 14.3356 225.228L14.0075 224.915C12.2848 223.194 11.4196 221.048 11.4196 218.44C11.4197 215.996 12.1796 213.957 13.694 212.294L14.0075 211.967C15.7302 210.246 17.8785 209.382 20.489 209.382ZM102.51 209.382C105.121 209.382 107.269 210.246 108.992 211.967C110.715 213.688 111.58 215.833 111.58 218.44C111.58 221.048 110.715 223.194 108.992 224.915C107.269 226.636 105.121 227.5 102.51 227.5C99.9 227.5 97.7517 226.636 96.029 224.915C94.3063 223.194 93.4411 221.048 93.4411 218.44C93.4412 215.833 94.3064 213.688 96.029 211.967C97.7517 210.246 99.9 209.382 102.51 209.382ZM-20.5218 154.758C-18.0743 154.758 -16.0326 155.517 -14.3675 157.03L-14.0394 157.343C-12.3167 159.064 -11.4525 161.21 -11.4525 163.817C-11.4525 166.262 -12.2124 168.301 -13.7269 169.964L-14.0394 170.291C-15.7621 172.012 -17.9113 172.876 -20.5218 172.876C-22.9689 172.876 -25.0101 172.117 -26.6751 170.604L-27.0032 170.291C-28.7258 168.57 -29.5911 166.425 -29.5911 163.817C-29.5911 161.373 -28.831 159.334 -27.3167 157.671L-27.0032 157.343C-25.2805 155.622 -23.1321 154.758 -20.5218 154.758ZM61.4997 154.758C63.9469 154.758 65.988 155.517 67.653 157.03L67.9811 157.343C69.7039 159.064 70.569 161.21 70.569 163.817C70.569 166.262 69.809 168.301 68.2946 169.964L67.9811 170.291C66.2584 172.012 64.1102 172.876 61.4997 172.876C59.0525 172.876 57.0114 172.117 55.3464 170.604L55.0182 170.291C53.2956 168.57 52.4304 166.425 52.4304 163.817C52.4304 161.373 53.1905 159.334 54.7048 157.671L55.0182 157.343C56.741 155.622 58.8893 154.758 61.4997 154.758ZM143.521 154.758C145.968 154.758 148.009 155.517 149.674 157.03L150.003 157.343C151.725 159.064 152.591 161.21 152.591 163.817C152.59 166.262 151.83 168.301 150.316 169.964L150.003 170.291C148.28 172.012 146.132 172.876 143.521 172.876C141.074 172.876 139.032 172.117 137.367 170.604L137.039 170.291C135.316 168.57 134.452 166.424 134.452 163.817C134.452 161.373 135.212 159.334 136.726 157.671L137.039 157.343C138.762 155.622 140.911 154.758 143.521 154.758ZM61.4997 52.3389C75.0587 52.3389 86.5878 56.8838 96.1149 65.9785L97.0309 66.8721C106.732 76.563 111.58 88.3841 111.58 102.365V115.521H103.01V102.365C103.01 90.8542 98.9711 81.0538 90.902 72.9932C82.8329 64.9325 73.0224 60.8975 61.4997 60.8975C49.977 60.8975 40.1665 64.9325 32.0974 72.9932C24.0283 81.0538 19.989 90.8542 19.989 102.365V115.521H11.4196V102.365C11.4197 88.8209 15.9697 77.3042 25.0739 67.7871L25.9684 66.8721C35.6696 57.1811 47.5034 52.3389 61.4997 52.3389ZM189.5 98.0859V106.646H153.591V98.0859H189.5ZM-30.5911 98.0859V106.646H-66.5003V98.0859H-30.5911ZM155.128 14.6191L129.847 40.2041L123.722 34.0859L149.321 8.51367L155.128 14.6191ZM-1.05499 34.0928L-6.86066 40.1982L-32.4593 14.626L-26.3333 8.50684L-1.05499 34.0928ZM65.7839 -25.5V10.3711H57.2155V-25.5H65.7839Z" stroke="url(#paint1_linear_1_15070)"/>
<defs>
<linearGradient id="paint0_linear_1_15070" x1="61.4997" y1="-62.7308" x2="61.4997" y2="245.431" gradientUnits="userSpaceOnUse">
<stop stop-color="#1F1C2B"/>
<stop offset="1" stop-color="#282438"/>
</linearGradient>
<linearGradient id="paint1_linear_1_15070" x1="61.4997" y1="-26" x2="61.4997" y2="281.954" gradientUnits="userSpaceOnUse">
<stop stop-color="white" stop-opacity="0.25"/>
<stop offset="1" stop-color="white" stop-opacity="0"/>
</linearGradient>
</defs>
</svg>
